<mxfile host="app.diagrams.net" modified="2021-09-26T14:10:37.285Z" agent="5.0 (Windows NT 10.0; Win64; x64) AppleWebKit/537.36 (KHTML, like Gecko) Chrome/93.0.4577.63 Safari/537.36" etag="cIMDSYBnWct2MYx5EhNK" version="14.9.2" type="github" pages="2">
  <diagram id="1SNcCF1kHxkMj9YLsHfO" name="对象的流转与分配">
    <mxGraphModel dx="1422" dy="762" grid="1" gridSize="10" guides="1" tooltips="1" connect="1" arrows="1" fold="1" page="1" pageScale="1" pageWidth="827" pageHeight="1169" math="0" shadow="0">
      <root>
        <mxCell id="0" />
        <mxCell id="1" parent="0" />
        <mxCell id="WHCCUSghSUbCCYvrMhM6-1" value="对象在JVM中的分配与流转" style="swimlane;fontStyle=0;childLayout=stackLayout;horizontal=1;startSize=26;horizontalStack=0;resizeParent=1;resizeParentMax=0;resizeLast=0;collapsible=1;marginBottom=0;" parent="1" vertex="1">
          <mxGeometry x="30" y="130" width="750" height="210" as="geometry">
            <mxRectangle x="30" y="130" width="180" height="26" as="alternateBounds" />
          </mxGeometry>
        </mxCell>
        <mxCell id="WHCCUSghSUbCCYvrMhM6-2" value="一般情况对象创建之后首先分配到年轻代，当年轻代容量达到一定阈值，进行垃圾回收，还在被引用的对象依然存活，&#xa;被标记年龄，默认年龄达到15时，进入老年代" style="text;strokeColor=none;fillColor=none;align=left;verticalAlign=top;spacingLeft=4;spacingRight=4;overflow=hidden;rotatable=0;points=[[0,0.5],[1,0.5]];portConstraint=eastwest;" parent="WHCCUSghSUbCCYvrMhM6-1" vertex="1">
          <mxGeometry y="26" width="750" height="64" as="geometry" />
        </mxCell>
        <mxCell id="WHCCUSghSUbCCYvrMhM6-3" value="Item 2" style="text;strokeColor=none;fillColor=none;align=left;verticalAlign=top;spacingLeft=4;spacingRight=4;overflow=hidden;rotatable=0;points=[[0,0.5],[1,0.5]];portConstraint=eastwest;" parent="WHCCUSghSUbCCYvrMhM6-1" vertex="1">
          <mxGeometry y="90" width="750" height="50" as="geometry" />
        </mxCell>
        <mxCell id="WHCCUSghSUbCCYvrMhM6-4" value="Item 3" style="text;strokeColor=none;fillColor=none;align=left;verticalAlign=top;spacingLeft=4;spacingRight=4;overflow=hidden;rotatable=0;points=[[0,0.5],[1,0.5]];portConstraint=eastwest;" parent="WHCCUSghSUbCCYvrMhM6-1" vertex="1">
          <mxGeometry y="140" width="750" height="70" as="geometry" />
        </mxCell>
      </root>
    </mxGraphModel>
  </diagram>
  <diagram id="9tiCu9ajD5bxnPYyKCn5" name="双亲委派机制">
    <mxGraphModel dx="1422" dy="762" grid="1" gridSize="10" guides="1" tooltips="1" connect="1" arrows="1" fold="1" page="1" pageScale="1" pageWidth="827" pageHeight="1169" math="0" shadow="0">
      <root>
        <mxCell id="f6X2jvwhvj7JGpMR34aU-0" />
        <mxCell id="f6X2jvwhvj7JGpMR34aU-1" parent="f6X2jvwhvj7JGpMR34aU-0" />
        <mxCell id="f6X2jvwhvj7JGpMR34aU-7" style="edgeStyle=orthogonalEdgeStyle;rounded=0;orthogonalLoop=1;jettySize=auto;html=1;exitX=0.5;exitY=1;exitDx=0;exitDy=0;entryX=0.5;entryY=0;entryDx=0;entryDy=0;" edge="1" parent="f6X2jvwhvj7JGpMR34aU-1" source="f6X2jvwhvj7JGpMR34aU-2" target="f6X2jvwhvj7JGpMR34aU-3">
          <mxGeometry relative="1" as="geometry" />
        </mxCell>
        <mxCell id="f6X2jvwhvj7JGpMR34aU-2" value="启动类加载器" style="rounded=0;whiteSpace=wrap;html=1;fillColor=#dae8fc;strokeColor=#6c8ebf;" vertex="1" parent="f6X2jvwhvj7JGpMR34aU-1">
          <mxGeometry x="240" y="100" width="120" height="60" as="geometry" />
        </mxCell>
        <mxCell id="f6X2jvwhvj7JGpMR34aU-8" style="edgeStyle=orthogonalEdgeStyle;rounded=0;orthogonalLoop=1;jettySize=auto;html=1;exitX=0.5;exitY=1;exitDx=0;exitDy=0;entryX=0.5;entryY=0;entryDx=0;entryDy=0;" edge="1" parent="f6X2jvwhvj7JGpMR34aU-1" source="f6X2jvwhvj7JGpMR34aU-3" target="f6X2jvwhvj7JGpMR34aU-4">
          <mxGeometry relative="1" as="geometry" />
        </mxCell>
        <mxCell id="f6X2jvwhvj7JGpMR34aU-3" value="扩展类加载器" style="rounded=0;whiteSpace=wrap;html=1;fillColor=#dae8fc;strokeColor=#6c8ebf;" vertex="1" parent="f6X2jvwhvj7JGpMR34aU-1">
          <mxGeometry x="240" y="210" width="120" height="60" as="geometry" />
        </mxCell>
        <mxCell id="f6X2jvwhvj7JGpMR34aU-9" style="edgeStyle=orthogonalEdgeStyle;rounded=0;orthogonalLoop=1;jettySize=auto;html=1;exitX=0.5;exitY=1;exitDx=0;exitDy=0;entryX=0.5;entryY=0;entryDx=0;entryDy=0;" edge="1" parent="f6X2jvwhvj7JGpMR34aU-1" source="f6X2jvwhvj7JGpMR34aU-4" target="f6X2jvwhvj7JGpMR34aU-5">
          <mxGeometry relative="1" as="geometry" />
        </mxCell>
        <mxCell id="f6X2jvwhvj7JGpMR34aU-10" style="edgeStyle=orthogonalEdgeStyle;rounded=0;orthogonalLoop=1;jettySize=auto;html=1;exitX=0.5;exitY=1;exitDx=0;exitDy=0;entryX=0.5;entryY=0;entryDx=0;entryDy=0;" edge="1" parent="f6X2jvwhvj7JGpMR34aU-1" source="f6X2jvwhvj7JGpMR34aU-4" target="f6X2jvwhvj7JGpMR34aU-6">
          <mxGeometry relative="1" as="geometry" />
        </mxCell>
        <mxCell id="f6X2jvwhvj7JGpMR34aU-4" value="程序类加载器" style="rounded=0;whiteSpace=wrap;html=1;fillColor=#dae8fc;strokeColor=#6c8ebf;" vertex="1" parent="f6X2jvwhvj7JGpMR34aU-1">
          <mxGeometry x="240" y="330" width="120" height="60" as="geometry" />
        </mxCell>
        <mxCell id="f6X2jvwhvj7JGpMR34aU-5" value="自定义类加载器" style="rounded=0;whiteSpace=wrap;html=1;fillColor=#dae8fc;strokeColor=#6c8ebf;" vertex="1" parent="f6X2jvwhvj7JGpMR34aU-1">
          <mxGeometry x="150" y="470" width="120" height="60" as="geometry" />
        </mxCell>
        <mxCell id="f6X2jvwhvj7JGpMR34aU-6" value="自定义类加载器" style="rounded=0;whiteSpace=wrap;html=1;fillColor=#dae8fc;strokeColor=#6c8ebf;" vertex="1" parent="f6X2jvwhvj7JGpMR34aU-1">
          <mxGeometry x="350" y="470" width="120" height="60" as="geometry" />
        </mxCell>
        <mxCell id="f6X2jvwhvj7JGpMR34aU-11" value="" style="endArrow=classic;html=1;strokeWidth=3;" edge="1" parent="f6X2jvwhvj7JGpMR34aU-1">
          <mxGeometry width="50" height="50" relative="1" as="geometry">
            <mxPoint x="590" y="550" as="sourcePoint" />
            <mxPoint x="590" y="120" as="targetPoint" />
          </mxGeometry>
        </mxCell>
        <mxCell id="f6X2jvwhvj7JGpMR34aU-12" value="" style="endArrow=classic;html=1;strokeWidth=3;" edge="1" parent="f6X2jvwhvj7JGpMR34aU-1">
          <mxGeometry width="50" height="50" relative="1" as="geometry">
            <mxPoint x="730" y="100" as="sourcePoint" />
            <mxPoint x="730" y="550" as="targetPoint" />
          </mxGeometry>
        </mxCell>
        <mxCell id="f6X2jvwhvj7JGpMR34aU-13" value="&lt;span style=&quot;white-space: pre&quot;&gt;	&lt;/span&gt;一个类需要加载，首先是自下而上交给自己的父类去加载，一直到最顶层；&lt;br&gt;&lt;br&gt;&lt;span style=&quot;white-space: pre&quot;&gt;	&lt;/span&gt;然后由最顶层父类开始看看自己要加载的库里有没有，如果有就加载，没有就交给子类加载，依次自上而下加载" style="text;html=1;strokeColor=none;fillColor=none;align=left;verticalAlign=middle;whiteSpace=wrap;rounded=0;" vertex="1" parent="f6X2jvwhvj7JGpMR34aU-1">
          <mxGeometry x="480" y="610" width="270" height="100" as="geometry" />
        </mxCell>
      </root>
    </mxGraphModel>
  </diagram>
</mxfile>
